# 3ds Max Wavefront OBJ Exporter v0.97b - (c)2007 guruware
# File Created: 08.11.2012 00:41:07

mtllib Background.mtl

#
# object Plane001
#

v  519.6335 0.0000 -367.6486
v  -504.3665 0.0000 -367.6486
v  -504.3665 0.0000 400.3514
v  519.6335 0.0000 400.3514
# 4 vertices

vn 0.0000 1.0000 -0.0000
# 1 vertex normals

vt 0.0000 1.0000 0.0000
vt 0.0000 0.0000 0.0000
vt 1.0000 0.0000 0.0000
vt 1.0000 1.0000 0.0000
# 4 texture coords

g Plane001
usemtl 01___Default
s 1
f 1/1/1 2/2/1 3/3/1 4/4/1 
# 1 polygons

