# 3ds Max Wavefront OBJ Exporter v0.97b - (c)2007 guruware
# File Created: 08.12.2011 00:20:26

mtllib liquido.mtl

#
# object Cylinder01
#

v  12.1843 3.8908 -10.2767
v  11.1635 3.8908 -6.4669
v  8.3746 3.8908 -3.6780
v  4.5648 3.8908 -2.6572
v  0.7550 3.8908 -3.6780
v  -2.0339 3.8908 -6.4669
v  -3.0547 3.8908 -10.2767
v  -2.0339 3.8908 -14.0864
v  0.7550 3.8908 -16.8754
v  4.5648 3.8908 -17.8962
v  8.3746 3.8908 -16.8754
v  11.1635 3.8908 -14.0864
v  11.1635 31.8908 -14.0864
v  12.1843 31.8908 -10.2767
v  8.3746 31.8908 -16.8754
v  4.5648 31.8908 -17.8962
v  0.7550 31.8908 -16.8754
v  -2.0339 31.8908 -14.0864
v  -3.0547 31.8908 -10.2767
v  -2.0339 31.8908 -6.4669
v  0.7550 31.8908 -3.6780
v  4.5648 31.8908 -2.6572
v  8.3746 31.8908 -3.6780
v  11.1635 31.8908 -6.4669
# 24 vertices

vn 0.0000 -1.0000 -0.0000
vn 1.0000 0.0000 -0.0000
vn 0.8660 0.0000 -0.5000
vn 0.5000 0.0000 -0.8660
vn 0.0000 0.0000 -1.0000
vn -0.5000 0.0000 -0.8660
vn -0.8660 0.0000 -0.5000
vn -1.0000 0.0000 -0.0000
vn -0.8660 0.0000 0.5000
vn -0.5000 0.0000 0.8660
vn 0.0000 0.0000 1.0000
vn 0.5000 0.0000 0.8660
vn 0.8660 0.0000 0.5000
vn -0.0000 1.0000 -0.0000
# 14 vertex normals

vt 0.5000 0.7500 1.4869
vt 0.6250 0.7165 1.4869
vt 0.7165 0.6250 1.4869
vt 0.7500 0.5000 1.4869
vt 0.7165 0.3750 1.4869
vt 0.6250 0.2835 1.4869
vt 0.5000 0.2500 1.4869
vt 0.3750 0.2835 1.4869
vt 0.2835 0.3750 1.4869
vt 0.2500 0.5000 1.4869
vt 0.2835 0.6250 1.4869
vt 0.3750 0.7165 1.4869
vt 0.7500 0.0000 1.0000
vt 0.8333 1.0000 1.0000
vt 0.7500 1.0000 1.0000
vt 0.8333 0.0000 1.0000
vt 0.9167 1.0000 1.0000
vt 0.9167 0.0000 1.0000
vt -0.0833 0.0000 1.0000
vt 0.0000 1.0000 1.0000
vt -0.0833 1.0000 1.0000
vt 0.0000 0.0000 1.0000
vt 0.0833 1.0000 1.0000
vt 0.0833 0.0000 1.0000
vt 0.1667 1.0000 1.0000
vt 0.1667 0.0000 1.0000
vt 0.2500 1.0000 1.0000
vt 0.2500 0.0000 1.0000
vt 0.3333 1.0000 1.0000
vt 0.3333 0.0000 1.0000
vt 0.4167 1.0000 1.0000
vt 0.4167 0.0000 1.0000
vt 0.5000 1.0000 1.0000
vt 0.5000 0.0000 1.0000
vt 0.5833 1.0000 1.0000
vt 0.5833 0.0000 1.0000
vt 0.6667 1.0000 1.0000
vt 0.6667 0.0000 1.0000
vt 0.8403 -0.1885 0.5000
vt 0.5700 -0.1997 0.5000
vt 0.2997 -0.1885 0.5000
vt 0.1019 -0.1579 0.5000
vt 0.0295 -0.1162 0.5000
vt 0.1019 -0.0744 0.5000
vt 0.2997 -0.0438 0.5000
vt 0.5700 -0.0326 0.5000
vt 0.8403 -0.0438 0.5000
vt 1.0381 -0.0744 0.5000
vt 1.1105 -0.1162 0.5000
vt 1.0381 -0.1579 0.5000
# 50 texture coords

g Cylinder01
usemtl wire_138008110
s 1
f 1/1/1 2/2/1 3/3/1 
f 3/3/1 4/4/1 5/5/1 
f 5/5/1 6/6/1 7/7/1 
f 3/3/1 5/5/1 7/7/1 
f 7/7/1 8/8/1 9/9/1 
f 9/9/1 10/10/1 11/11/1 
f 7/7/1 9/9/1 11/11/1 
f 3/3/1 7/7/1 11/11/1 
f 1/1/1 3/3/1 11/11/1 
f 12/12/1 1/1/1 11/11/1 
s 8
f 1/13/2 13/14/3 14/15/2 
f 1/13/2 12/16/3 13/14/3 
f 12/16/3 15/17/4 13/14/3 
f 12/16/3 11/18/4 15/17/4 
f 11/19/4 16/20/5 15/21/4 
f 11/19/4 10/22/5 16/20/5 
f 10/22/5 17/23/6 16/20/5 
f 10/22/5 9/24/6 17/23/6 
f 9/24/6 18/25/7 17/23/6 
f 9/24/6 8/26/7 18/25/7 
f 8/26/7 19/27/8 18/25/7 
f 8/26/7 7/28/8 19/27/8 
f 7/28/8 20/29/9 19/27/8 
f 7/28/8 6/30/9 20/29/9 
f 6/30/9 21/31/10 20/29/9 
f 6/30/9 5/32/10 21/31/10 
f 5/32/10 22/33/11 21/31/10 
f 5/32/10 4/34/11 22/33/11 
f 4/34/11 23/35/12 22/33/11 
f 4/34/11 3/36/12 23/35/12 
f 3/36/12 24/37/13 23/35/12 
f 3/36/12 2/38/13 24/37/13 
f 2/38/13 14/15/2 24/37/13 
f 2/38/13 1/13/2 14/15/2 
s 1
f 15/39/14 16/40/14 17/41/14 
f 17/41/14 18/42/14 19/43/14 
f 19/43/14 20/44/14 21/45/14 
f 17/41/14 19/43/14 21/45/14 
f 21/45/14 22/46/14 23/47/14 
f 23/47/14 24/48/14 14/49/14 
f 21/45/14 23/47/14 14/49/14 
f 17/41/14 21/45/14 14/49/14 
f 15/39/14 17/41/14 14/49/14 
f 13/50/14 15/39/14 14/49/14 
# 44 faces

