# 3ds Max Wavefront OBJ Exporter v0.97b - (c)2007 guruware
# File Created: 15.12.2011 02:33:43

mtllib plano_balcao.mtl

#
# object Plane05
#

v  500.2375 74.9219 -28.8372
v  500.2375 233.8462 -28.8372
v  -499.7625 233.8462 -28.8376
v  -499.7625 74.9219 -28.8376
v  500.2375 -233.8462 -28.8372
v  500.2375 100.1537 -28.8372
v  -499.7625 100.1537 -28.8375
v  -499.7625 -233.8462 -28.8375
v  499.7625 -79.7222 -28.7747
v  -500.2375 -79.7222 -28.7747
v  -500.2375 -79.7222 32.1131
v  499.7625 -79.7222 32.1131
v  -500.2375 -91.8983 32.1131
v  499.7625 -91.8983 32.1131
v  -500.2375 -91.8983 -28.7747
v  -424.0509 -107.2828 17.5486
v  -484.5647 -107.2828 17.5486
v  -484.5647 -176.8876 17.5486
v  -424.0509 -176.8876 17.5486
v  -333.1418 -107.2828 17.5486
v  -393.6557 -107.2828 17.5486
v  -393.6557 -176.8876 17.5486
v  -333.1418 -176.8876 17.5486
v  -242.2327 -107.2828 17.5486
v  -302.7466 -107.2828 17.5486
v  -302.7466 -176.8876 17.5486
v  -242.2327 -176.8876 17.5486
v  -151.3236 -107.2828 17.5486
v  -211.8375 -107.2828 17.5486
v  -211.8375 -176.8876 17.5486
v  -151.3236 -176.8876 17.5486
v  -60.4145 -107.2828 17.5486
v  -120.9284 -107.2828 17.5486
v  -120.9284 -176.8876 17.5486
v  -60.4145 -176.8876 17.5486
v  30.4946 -107.2828 17.5486
v  -30.0193 -107.2828 17.5486
v  -30.0193 -176.8876 17.5486
v  30.4946 -176.8876 17.5486
v  121.4037 -107.2828 17.5486
v  60.8898 -107.2828 17.5486
v  60.8898 -176.8876 17.5486
v  121.4037 -176.8876 17.5486
v  212.3128 -107.2828 17.5486
v  151.7989 -107.2828 17.5486
v  151.7989 -176.8876 17.5486
v  212.3128 -176.8876 17.5486
v  303.2218 -107.2828 17.5486
v  242.7080 -107.2828 17.5486
v  242.7080 -176.8876 17.5486
v  303.2218 -176.8876 17.5486
v  394.1309 -107.2828 17.5486
v  333.6170 -107.2828 17.5486
v  333.6170 -176.8876 17.5486
v  394.1309 -176.8876 17.5486
v  485.0399 -107.2828 17.5486
v  424.5261 -107.2828 17.5486
v  424.5261 -176.8876 17.5486
v  485.0399 -176.8876 17.5486
v  -499.7625 -192.0852 9.5486
v  -499.7625 -92.0852 9.5486
v  -499.7625 -92.0852 -32.1132
v  -499.7625 -192.0852 -32.1132
v  -408.8533 -192.0852 9.5486
v  -408.8533 -92.0852 9.5486
v  -317.9442 -192.0852 9.5486
v  -317.9442 -92.0852 9.5486
v  -227.0351 -192.0852 9.5486
v  -227.0351 -92.0852 9.5486
v  -136.1260 -192.0852 9.5486
v  -136.1260 -92.0852 9.5486
v  -45.2169 -192.0852 9.5486
v  -45.2169 -92.0852 9.5486
v  45.6922 -192.0852 9.5486
v  45.6922 -92.0852 9.5486
v  136.6013 -192.0852 9.5486
v  136.6013 -92.0852 9.5486
v  227.5104 -192.0852 9.5486
v  227.5104 -92.0852 9.5486
v  318.4194 -192.0852 9.5486
v  318.4194 -92.0852 9.5486
v  409.3285 -192.0852 9.5486
v  409.3285 -92.0852 9.5486
v  500.2375 -192.0852 9.5486
v  500.2375 -92.0852 9.5486
# 85 vertices

vn 0.0000 0.0000 1.0000
vn 0.0000 1.0000 -0.0000
vn -1.0000 0.0000 -0.0000
vn 0.0000 -0.4658 0.8849
vn 0.4658 0.0000 0.8849
vn 0.0000 0.4658 0.8849
vn -0.4658 0.0000 0.8849
# 7 vertex normals

vt 0.0000 0.0000 0.0000
vt 0.0000 1.0000 0.0000
vt 1.0000 1.0000 0.0000
vt 1.0000 0.0000 0.0000
vt 6.2468 0.6590 0.5365
vt -5.2468 0.6591 0.5365
vt -5.2468 0.3410 0.5365
vt 6.2468 0.3409 0.5365
vt 6.2468 0.5365 0.3409
vt -5.2468 0.5365 0.3410
vt -5.2468 0.4635 0.3410
vt 6.2468 0.4635 0.3409
vt 0.6590 0.5365 -5.2468
vt 0.3409 0.5365 -5.2468
vt 0.3409 0.4635 -5.2468
vt 0.6590 0.4635 -5.2468
vt 0.0909 1.0000 0.0000
vt 0.0909 0.0000 0.0000
vt 0.1818 1.0000 0.0000
vt 0.1818 0.0000 0.0000
vt 0.2727 1.0000 0.0000
vt 0.2727 0.0000 0.0000
vt 0.3636 1.0000 0.0000
vt 0.3636 0.0000 0.0000
vt 0.4545 1.0000 0.0000
vt 0.4545 0.0000 0.0000
vt 0.5455 1.0000 0.0000
vt 0.5455 0.0000 0.0000
vt 0.6364 1.0000 0.0000
vt 0.6364 0.0000 0.0000
vt 0.7273 1.0000 0.0000
vt 0.7273 0.0000 0.0000
vt 0.8182 1.0000 0.0000
vt 0.8182 0.0000 0.0000
vt 0.9091 1.0000 0.0000
vt 0.9091 0.0000 0.0000
vt 0.6139 0.5603 1.3897
vt 0.3861 0.5603 1.3897
vt 0.3826 0.4397 2.0363
vt 0.6174 0.4397 2.0363
vt 0.8861 0.5603 1.3897
vt 0.8826 0.4397 2.0363
vt 1.1139 0.5603 1.3897
vt 1.1174 0.4397 2.0363
vt 0.1139 0.5603 1.3897
vt 0.1174 0.4397 2.0363
vt 0.6064 0.9995 0.9749
vt 0.3936 0.9995 0.9749
vt 0.3901 0.0005 1.4256
vt 0.6099 0.0005 1.4256
vt 0.8936 0.9995 0.9749
vt 0.8901 0.0005 1.4256
vt 1.1064 0.9995 0.9749
vt 1.1099 0.0005 1.4256
vt 0.1064 0.9995 0.9749
vt 0.1099 0.0005 1.4256
# 56 texture coords

g Plane05
usemtl 09___Default
s 1
f 1/1/1 2/2/1 3/3/1 
f 3/3/1 4/4/1 1/1/1 
usemtl 01___Default
f 5/1/1 6/4/1 7/3/1 
f 7/3/1 8/2/1 5/1/1 
usemtl 02___Default
s 4
f 9/5/2 10/6/2 11/7/2 
f 11/7/2 12/8/2 9/5/2 
s 8
f 12/9/1 11/10/1 13/11/1 
f 13/11/1 14/12/1 12/9/1 
s 64
f 11/13/3 10/14/3 15/15/3 
f 15/15/3 13/16/3 11/13/3 
usemtl 03___Default
s 4
f 16/17/1 17/2/1 18/1/1 
f 18/1/1 19/18/1 16/17/1 
f 20/19/1 21/17/1 22/18/1 
f 22/18/1 23/20/1 20/19/1 
f 24/21/1 25/19/1 26/20/1 
f 26/20/1 27/22/1 24/21/1 
f 28/23/1 29/21/1 30/22/1 
f 30/22/1 31/24/1 28/23/1 
f 32/25/1 33/23/1 34/24/1 
f 34/24/1 35/26/1 32/25/1 
f 36/27/1 37/25/1 38/26/1 
f 38/26/1 39/28/1 36/27/1 
f 40/29/1 41/27/1 42/28/1 
f 42/28/1 43/30/1 40/29/1 
f 44/31/1 45/29/1 46/30/1 
f 46/30/1 47/32/1 44/31/1 
f 48/33/1 49/31/1 50/32/1 
f 50/32/1 51/34/1 48/33/1 
f 52/35/1 53/33/1 54/34/1 
f 54/34/1 55/36/1 52/35/1 
f 56/3/1 57/35/1 58/36/1 
f 58/36/1 59/4/1 56/3/1 
s 64
f 60/3/3 61/2/3 62/1/3 
f 62/1/3 63/4/3 60/3/3 
s off
f 19/37/4 18/38/4 60/39/4 
f 60/39/4 64/40/4 19/37/4 
f 16/41/5 19/37/5 64/40/5 
f 64/40/5 65/42/5 16/41/5 
f 17/43/6 16/41/6 65/42/6 
f 65/42/6 61/44/6 17/43/6 
f 18/38/7 17/45/7 61/46/7 
f 61/46/7 60/39/7 18/38/7 
f 23/37/4 22/38/4 64/39/4 
f 64/39/4 66/40/4 23/37/4 
f 20/41/5 23/37/5 66/40/5 
f 66/40/5 67/42/5 20/41/5 
f 21/43/6 20/41/6 67/42/6 
f 67/42/6 65/44/6 21/43/6 
f 22/38/7 21/45/7 65/46/7 
f 65/46/7 64/39/7 22/38/7 
f 27/47/4 26/48/4 66/49/4 
f 66/49/4 68/50/4 27/47/4 
f 24/51/5 27/47/5 68/50/5 
f 68/50/5 69/52/5 24/51/5 
f 25/53/6 24/51/6 69/52/6 
f 69/52/6 67/54/6 25/53/6 
f 26/48/7 25/55/7 67/56/7 
f 67/56/7 66/49/7 26/48/7 
f 31/47/4 30/48/4 68/49/4 
f 68/49/4 70/50/4 31/47/4 
f 28/51/5 31/47/5 70/50/5 
f 70/50/5 71/52/5 28/51/5 
f 29/53/6 28/51/6 71/52/6 
f 71/52/6 69/54/6 29/53/6 
f 30/48/7 29/55/7 69/56/7 
f 69/56/7 68/49/7 30/48/7 
f 35/47/4 34/48/4 70/49/4 
f 70/49/4 72/50/4 35/47/4 
f 32/51/5 35/47/5 72/50/5 
f 72/50/5 73/52/5 32/51/5 
f 33/53/6 32/51/6 73/52/6 
f 73/52/6 71/54/6 33/53/6 
f 34/48/7 33/55/7 71/56/7 
f 71/56/7 70/49/7 34/48/7 
f 39/47/4 38/48/4 72/49/4 
f 72/49/4 74/50/4 39/47/4 
f 36/51/5 39/47/5 74/50/5 
f 74/50/5 75/52/5 36/51/5 
f 37/53/6 36/51/6 75/52/6 
f 75/52/6 73/54/6 37/53/6 
f 38/48/7 37/55/7 73/56/7 
f 73/56/7 72/49/7 38/48/7 
f 43/47/4 42/48/4 74/49/4 
f 74/49/4 76/50/4 43/47/4 
f 40/51/5 43/47/5 76/50/5 
f 76/50/5 77/52/5 40/51/5 
f 41/53/6 40/51/6 77/52/6 
f 77/52/6 75/54/6 41/53/6 
f 42/48/7 41/55/7 75/56/7 
f 75/56/7 74/49/7 42/48/7 
f 47/47/4 46/48/4 76/49/4 
f 76/49/4 78/50/4 47/47/4 
f 44/51/5 47/47/5 78/50/5 
f 78/50/5 79/52/5 44/51/5 
f 45/53/6 44/51/6 79/52/6 
f 79/52/6 77/54/6 45/53/6 
f 46/48/7 45/55/7 77/56/7 
f 77/56/7 76/49/7 46/48/7 
f 51/47/4 50/48/4 78/49/4 
f 78/49/4 80/50/4 51/47/4 
f 48/51/5 51/47/5 80/50/5 
f 80/50/5 81/52/5 48/51/5 
f 49/53/6 48/51/6 81/52/6 
f 81/52/6 79/54/6 49/53/6 
f 50/48/7 49/55/7 79/56/7 
f 79/56/7 78/49/7 50/48/7 
f 55/47/4 54/48/4 80/49/4 
f 80/49/4 82/50/4 55/47/4 
f 52/51/5 55/47/5 82/50/5 
f 82/50/5 83/52/5 52/51/5 
f 53/53/6 52/51/6 83/52/6 
f 83/52/6 81/54/6 53/53/6 
f 54/48/7 53/55/7 81/56/7 
f 81/56/7 80/49/7 54/48/7 
f 59/47/4 58/48/4 82/49/4 
f 82/49/4 84/50/4 59/47/4 
f 56/51/5 59/47/5 84/50/5 
f 84/50/5 85/52/5 56/51/5 
f 57/53/6 56/51/6 85/52/6 
f 85/52/6 83/54/6 57/53/6 
f 58/48/7 57/55/7 83/56/7 
f 83/56/7 82/49/7 58/48/7 
# 122 faces

